<mxfile host="Electron" agent="Mozilla/5.0 (Windows NT 10.0; Win64; x64) AppleWebKit/537.36 (KHTML, like Gecko) draw.io/24.7.17 Chrome/128.0.6613.36 Electron/32.0.1 Safari/537.36" version="24.7.17">
  <diagram name="Preconceptual" id="vFr-lDEAmymNWqqNbZ2n">
    <mxGraphModel dx="1434" dy="884" grid="1" gridSize="10" guides="1" tooltips="1" connect="1" arrows="1" fold="1" page="1" pageScale="1" pageWidth="827" pageHeight="1169" math="0" shadow="0">
      <root>
        <mxCell id="0" />
        <mxCell id="1" parent="0" />
        <mxCell id="CdNh4B9k0poooIRgrqXj-1" value="" style="rounded=1;whiteSpace=wrap;html=1;" vertex="1" parent="1">
          <mxGeometry x="40" y="80" width="120" height="190" as="geometry" />
        </mxCell>
        <mxCell id="CdNh4B9k0poooIRgrqXj-2" value="name" style="rounded=0;whiteSpace=wrap;html=1;" vertex="1" parent="1">
          <mxGeometry x="45" y="110" width="110" height="20" as="geometry" />
        </mxCell>
        <mxCell id="CdNh4B9k0poooIRgrqXj-3" value="d&lt;span style=&quot;background-color: initial;&quot;&gt;escription&lt;/span&gt;" style="rounded=0;whiteSpace=wrap;html=1;" vertex="1" parent="1">
          <mxGeometry x="45" y="135" width="110" height="20" as="geometry" />
        </mxCell>
        <mxCell id="CdNh4B9k0poooIRgrqXj-4" value="avaliable tickets" style="rounded=0;whiteSpace=wrap;html=1;" vertex="1" parent="1">
          <mxGeometry x="45" y="165" width="110" height="20" as="geometry" />
        </mxCell>
        <mxCell id="CdNh4B9k0poooIRgrqXj-5" value="date" style="rounded=0;whiteSpace=wrap;html=1;" vertex="1" parent="1">
          <mxGeometry x="45" y="190" width="110" height="20" as="geometry" />
        </mxCell>
        <mxCell id="CdNh4B9k0poooIRgrqXj-6" value="capacity" style="rounded=0;whiteSpace=wrap;html=1;" vertex="1" parent="1">
          <mxGeometry x="45" y="220" width="110" height="20" as="geometry" />
        </mxCell>
        <mxCell id="CdNh4B9k0poooIRgrqXj-8" style="edgeStyle=orthogonalEdgeStyle;rounded=0;orthogonalLoop=1;jettySize=auto;html=1;exitX=0;exitY=0.5;exitDx=0;exitDy=0;entryX=1;entryY=0.5;entryDx=0;entryDy=0;" edge="1" parent="1" source="CdNh4B9k0poooIRgrqXj-7" target="CdNh4B9k0poooIRgrqXj-1">
          <mxGeometry relative="1" as="geometry" />
        </mxCell>
        <mxCell id="CdNh4B9k0poooIRgrqXj-9" value="have" style="edgeLabel;html=1;align=center;verticalAlign=middle;resizable=0;points=[];" vertex="1" connectable="0" parent="CdNh4B9k0poooIRgrqXj-8">
          <mxGeometry x="0.0444" y="-3" relative="1" as="geometry">
            <mxPoint as="offset" />
          </mxGeometry>
        </mxCell>
        <mxCell id="CdNh4B9k0poooIRgrqXj-7" value="event" style="rounded=1;whiteSpace=wrap;html=1;" vertex="1" parent="1">
          <mxGeometry x="250" y="145" width="120" height="60" as="geometry" />
        </mxCell>
      </root>
    </mxGraphModel>
  </diagram>
</mxfile>
